<svg width="238" height="75" viewBox="0 0 238 75" fill="none" xmlns="http://www.w3.org/2000/svg">
<rect y="24.9468" width="234" height="50" rx="25" transform="rotate(-6 0 24.9468)" fill="#FF7BD1"/>
<path d="M40.7086 51.7906L42.9363 51.5564L43.5986 57.8577L41.4982 58.0785L41.05 53.814L28.0655 55.1787L28.5137 59.4432L26.4133 59.664L25.751 53.3627L27.6923 53.1586C28.6249 51.6234 28.9552 49.5616 28.6832 46.9732L27.857 39.1125L39.2502 37.915L40.7086 51.7906ZM30.2383 52.891L38.6082 52.0113L37.3638 40.1725L30.1715 40.9285L30.7836 46.7524C31.04 49.1923 30.8583 51.2385 30.2383 52.891Z" fill="white"/>
<path d="M57.7036 35.9755L59.376 51.8878L57.2756 52.1086L55.8172 38.233L48.6248 38.989L49.3707 46.0859C49.6495 48.7379 49.3321 50.6161 48.4185 51.7203C47.5261 52.8223 46.1927 53.4021 44.4184 53.4599L44.211 51.4868C45.4337 51.487 46.2947 51.1069 46.794 50.3466C47.3145 49.584 47.4732 48.2373 47.2703 46.3066L46.3103 37.173L57.7036 35.9755Z" fill="white"/>
<path d="M73.6097 34.3037L75.2821 50.216L73.1817 50.4368L72.5395 44.3264L69.8026 44.6141L65.5438 51.2396L62.8705 51.5205L67.2499 44.818C65.9568 44.7609 64.8509 44.3409 63.932 43.558C63.0131 42.7751 62.4868 41.7471 62.353 40.4741C62.2014 39.0314 62.5868 37.8004 63.5093 36.781C64.4508 35.7382 65.6641 35.1388 67.1493 34.9827L73.6097 34.3037ZM67.9721 42.8116L72.3321 42.3533L71.7233 36.5612L67.3633 37.0195C66.4723 37.1131 65.7363 37.4586 65.1556 38.0559C64.5961 38.651 64.362 39.3835 64.4534 40.2534C64.5449 41.1232 64.9261 41.791 65.5971 42.2568C66.2894 42.7203 67.081 42.9052 67.9721 42.8116Z" fill="white"/>
<path d="M100.846 45.4699L103.074 45.2357L103.736 51.537L101.636 51.7578L101.187 47.4933L88.203 48.858L88.6512 53.1225L86.5508 53.3433L85.8885 47.042L87.8298 46.8379C88.7624 45.3027 89.0927 43.2409 88.8206 40.6525L87.9945 32.7918L99.3877 31.5943L100.846 45.4699ZM90.3758 46.5703L98.7457 45.6906L97.5013 33.8518L90.309 34.6078L90.9211 40.4317C91.1775 42.8716 90.9957 44.9178 90.3758 46.5703Z" fill="white"/>
<path d="M111.483 29.9369C113.838 29.6894 115.825 30.3279 117.444 31.8524C119.081 33.3534 120.02 35.239 120.258 37.5091C120.283 37.7425 120.296 38.0736 120.298 38.5024L106.327 39.9708C106.709 41.5609 107.523 42.7732 108.769 43.6075C110.034 44.4184 111.515 44.7346 113.212 44.5562C114.422 44.4291 115.436 44.0759 116.254 43.4965C117.092 42.8936 117.691 42.1657 118.052 41.3126L120.011 42.2006C119.429 43.3987 118.568 44.3901 117.428 45.175C116.288 45.9598 114.943 46.4336 113.395 46.5964C110.891 46.8595 108.772 46.2886 107.037 44.8836C105.302 43.4786 104.307 41.5667 104.053 39.148C103.803 36.7718 104.369 34.7067 105.751 32.9526C107.132 31.1986 109.043 30.1934 111.483 29.9369ZM111.697 31.9737C110.042 32.1477 108.705 32.7923 107.685 33.9077C106.684 34.9996 106.16 36.3417 106.113 37.934L117.984 36.6864C117.596 35.0326 116.811 33.7958 115.631 32.976C114.451 32.1562 113.14 31.8221 111.697 31.9737Z" fill="white"/>
<path d="M133.69 35.8079C135.496 36.2615 136.497 37.4112 136.691 39.2571C136.827 40.5513 136.504 41.6684 135.724 42.6085C134.962 43.5251 133.775 44.0682 132.162 44.2377L124.429 45.0505L122.756 29.1381L129.853 28.3922C131.402 28.2294 132.643 28.5066 133.577 29.2236C134.508 29.9194 135.039 30.8932 135.171 32.145C135.338 33.7362 134.844 34.9572 133.69 35.8079ZM130.067 30.429L125.071 30.9542L125.579 35.7915L130.576 35.2664C132.422 35.0724 133.258 34.1479 133.084 32.493C133.006 31.7504 132.701 31.2032 132.171 30.8514C131.66 30.4762 130.959 30.3353 130.067 30.429ZM131.948 42.2009C132.882 42.1028 133.569 41.8053 134.01 41.3085C134.473 40.8094 134.661 40.1568 134.577 39.3505C134.499 38.608 134.183 38.0513 133.629 37.6804C133.094 37.2862 132.36 37.1381 131.426 37.2362L125.793 37.8283L126.315 42.7929L131.948 42.2009Z" fill="white"/>
<path d="M149.504 26.3268L151.732 26.0927L146.748 44.1848C146.297 45.8195 145.546 47.1426 144.494 48.1541C143.466 49.1846 142.246 49.7204 140.834 49.7615L140.627 47.7883C142.559 47.7998 143.896 46.5438 144.639 44.0203L144.949 42.9903L136.138 27.7317L138.365 27.4976L145.75 40.2033L149.504 26.3268Z" fill="white"/>
<path d="M173.493 23.8056L175.593 23.5848L177.265 39.4972L155.943 41.7382L154.27 25.8259L156.371 25.6051L157.829 39.4807L165.34 38.6913L163.881 24.8157L165.982 24.595L167.44 38.4705L174.951 37.6811L173.493 23.8056Z" fill="white"/>
<path d="M187.346 21.9634C189.701 21.7159 191.688 22.3543 193.307 23.8788C194.945 25.3798 195.883 27.2654 196.122 29.5356C196.146 29.7689 196.16 30.1 196.162 30.5288L182.191 31.9972C182.572 33.5874 183.386 34.7996 184.632 35.6339C185.897 36.4448 187.378 36.7611 189.076 36.5827C190.285 36.4556 191.299 36.1023 192.118 35.5229C192.955 34.92 193.554 34.1921 193.915 33.339L195.875 34.2271C195.293 35.4251 194.432 36.4166 193.291 37.2014C192.151 37.9862 190.807 38.46 189.258 38.6228C186.754 38.8859 184.635 38.315 182.9 36.91C181.165 35.505 180.17 33.5932 179.916 31.1745C179.666 28.7982 180.232 26.7331 181.614 24.9791C182.995 23.2251 184.906 22.2198 187.346 21.9634ZM187.56 24.0002C185.905 24.1741 184.568 24.8187 183.548 25.9341C182.548 27.026 182.024 28.3681 181.977 29.9605L193.847 28.7128C193.459 27.059 192.675 25.8222 191.494 25.0024C190.314 24.1826 189.003 23.8485 187.56 24.0002Z" fill="white"/>
<path d="M213.149 35.7256L210.349 36.0199L201.587 29.1864L202.393 36.8562L200.292 37.0769L198.62 21.1646L200.72 20.9438L201.46 27.9771L208.295 20.1477L211.159 19.8467L203.751 28.3476L213.149 35.7256Z" fill="white"/>
</svg>
