<svg width="127" height="31" viewBox="0 0 127 31" fill="none" xmlns="http://www.w3.org/2000/svg">
<g clip-path="url(#clip0_250_1192)">
<path d="M0 3.74776V0.504517H9.08108C11.6757 0.504517 13.7838 1.15317 15.4054 2.2883C17.027 3.42344 18 5.20722 18 7.47749C18 8.93695 17.5135 10.3964 16.7027 11.5315C15.8919 12.6667 14.7568 13.6397 13.2973 14.2883C16.7027 15.2613 18.3243 17.3694 18.3243 20.7748C18.3243 23.5315 17.1892 25.8018 14.9189 27.2613C12.6486 28.7207 9.72973 29.5315 6.16216 29.5315H0V26.2883H2.59459V3.74776H0ZM13.7838 7.80181C13.7838 6.50452 13.2973 5.53154 12.1622 4.72073C11.1892 4.23425 9.72973 3.74776 7.94595 3.74776H6.64865V13.3153H7.78378C9.72973 13.3153 11.1892 12.8288 12.1622 11.6937C13.2973 10.7207 13.7838 9.42344 13.7838 7.80181ZM14.2703 20.6126C14.2703 19.3153 13.7838 18.3424 12.8108 17.6937C11.8378 17.0451 10.5405 16.7207 8.91892 16.7207H6.64865V26.2883C9.08108 26.1261 10.8649 25.6397 12.1622 24.6667C13.4595 23.6937 14.2703 22.3964 14.2703 20.6126Z" fill="black"/>
<path d="M34.2163 0.666748H40.3785V3.90999H37.7839V26.2884H40.3785V29.5316H31.1353V26.2884H33.7299V17.5316H31.2974L26.7569 29.3695H20.5947V26.1262H23.838L27.7299 16.883C26.1082 16.3965 24.6488 15.4235 23.6758 14.2884C22.7028 12.9911 22.0542 11.5316 22.0542 9.74783C22.0542 6.99107 23.1893 4.88296 25.4596 3.09918C27.892 1.47756 30.6488 0.666748 34.2163 0.666748ZM26.2704 9.74783C26.2704 11.2073 26.7569 12.3424 27.892 13.1532C29.0272 13.964 30.6488 14.2884 32.5947 14.2884H33.5677V3.90999C28.7028 4.07215 26.2704 6.0181 26.2704 9.74783Z" fill="black"/>
<path d="M50.7563 0.0180664C53.1887 0.0180664 55.2968 0.666715 57.0806 1.80185C58.7022 3.09915 59.6752 4.72077 59.6752 6.99104C59.6752 8.61266 59.1887 10.2343 58.2157 11.5316C57.2428 12.8289 55.9455 13.964 54.3239 14.6127C57.7293 15.5856 59.513 17.5316 59.513 20.7748C59.513 23.8559 58.5401 26.1262 56.432 27.5856C54.3238 29.0451 51.8914 29.8559 48.9725 29.8559C47.8374 29.8559 46.7022 29.6937 45.4049 29.3694V25.964C46.7022 26.2883 47.6752 26.2883 48.486 26.2883C50.432 26.2883 52.0536 25.8018 53.3509 24.991C54.6482 24.0181 55.459 22.7208 55.459 20.7748C55.459 19.4775 54.9725 18.5046 53.8374 17.8559C52.8644 17.2073 51.4049 16.8829 49.7833 16.8829H48.486V13.6397H49.2968C51.0806 13.6397 52.5401 12.991 53.6752 11.8559C54.8103 10.7208 55.459 9.26131 55.459 7.47753C55.459 6.18023 54.9725 5.04509 53.8374 4.39644C52.8644 3.58563 51.5671 3.26131 49.7833 3.26131C48.9725 3.26131 47.9995 3.26131 47.1887 3.42347V10.7208H43.459V0.666715C46.0536 0.180229 48.486 0.0180664 50.7563 0.0180664Z" fill="black"/>
<path d="M74.4328 29.3693V26.126H76.3788L75.4058 20.6125H69.2436L68.2707 26.126H70.3788V29.3693H61.7842V26.126H64.3788L68.9193 3.74764H66.9734V0.504395H75.4058L80.595 26.126H83.1896V29.3693H74.4328ZM72.1626 4.23412L69.7301 17.5314H74.7572L72.3247 4.23412H72.1626Z" fill="black"/>
<path d="M91.2971 16.2342V26.1261H93.8917V29.3694H84.6484V26.1261H87.243V3.74776H84.6484V0.504517H93.8917V3.74776H91.2971V12.991H99.0809V3.74776H96.4863V0.504517H105.73V3.74776H103.135V26.1261H105.73V29.3694H96.4863V26.1261H99.0809V16.2342H91.2971Z" fill="black"/>
<path d="M115.297 3.74776V12.5045H117.405C120.162 12.5045 122.432 13.1532 124.216 14.4505C126 15.7478 126.973 17.6937 126.973 20.2883C126.973 23.0451 125.838 25.1532 123.567 26.937C121.297 28.5586 118.54 29.5315 115.297 29.5315H108.648V26.2883H111.243V3.74776H108.648V0.504517H117.892V3.74776H115.297ZM122.757 20.2883C122.757 18.8288 122.27 17.6937 121.135 16.8829C120 16.0721 118.378 15.7478 116.27 15.7478H115.135V26.1261C120.162 25.964 122.757 24.018 122.757 20.2883Z" fill="black"/>
</g>
<defs>
<clipPath id="clip0_250_1192">
<rect width="126.811" height="30" fill="white" transform="translate(0 0.0180664)"/>
</clipPath>
</defs>
</svg>
