<svg width="115" height="27" viewBox="0 0 115 27" fill="none" xmlns="http://www.w3.org/2000/svg">
<g id="Frame" clip-path="url(#clip0_189_1490)">
<g id="Group">
<path id="Vector" d="M0 3.35691V0.437988H8.17297C10.5081 0.437988 12.4054 1.02177 13.8649 2.04339C15.3243 3.06502 16.2 4.67042 16.2 6.71366C16.2 8.02718 15.7622 9.34069 15.0324 10.3623C14.3027 11.3839 13.2811 12.2596 11.9676 12.8434C15.0324 13.7191 16.4919 15.6164 16.4919 18.6812C16.4919 21.1623 15.4703 23.2056 13.427 24.5191C11.3838 25.8326 8.75676 26.5623 5.54595 26.5623H0V23.6434H2.33514V3.35691H0ZM12.4054 7.00556C12.4054 5.83799 11.9676 4.96231 10.9459 4.23258C10.0703 3.79475 8.75676 3.35691 7.15135 3.35691H5.98378V11.9677H7.00541C8.75676 11.9677 10.0703 11.5299 10.9459 10.5083C11.9676 9.63258 12.4054 8.46502 12.4054 7.00556ZM12.8432 18.5353C12.8432 17.3677 12.4054 16.492 11.5297 15.9083C10.6541 15.3245 9.48649 15.0326 8.02703 15.0326H5.98378V23.6434C8.17297 23.4974 9.77838 23.0596 10.9459 22.1839C12.1135 21.3083 12.8432 20.1407 12.8432 18.5353Z" fill="black"/>
<path id="Vector_2" d="M30.7946 0.583496H36.3406V3.50242H34.0054V23.643H36.3406V26.5619H28.0216V23.643H30.3568V15.7619H28.1676L24.0811 26.4159H18.5352V23.497H21.4541L24.9568 15.1781C23.4973 14.7403 22.1838 13.8646 21.3081 12.843C20.4325 11.6754 19.8487 10.3619 19.8487 8.75647C19.8487 6.27539 20.8703 4.37809 22.9135 2.77269C25.1027 1.31323 27.5838 0.583496 30.7946 0.583496ZM23.6433 8.75647C23.6433 10.07 24.0811 11.0916 25.1027 11.8213C26.1243 12.5511 27.5838 12.843 29.3352 12.843H30.2108V3.50242C25.8325 3.64836 23.6433 5.39971 23.6433 8.75647Z" fill="black"/>
<path id="Vector_3" d="M45.6808 0C47.87 0 49.7673 0.583784 51.3727 1.60541C52.8322 2.77297 53.7079 4.23243 53.7079 6.27568C53.7079 7.73514 53.27 9.19459 52.3944 10.3622C51.5187 11.5297 50.3511 12.5514 48.8917 13.1351C51.9565 14.0108 53.5619 15.7622 53.5619 18.6811C53.5619 21.4541 52.6863 23.4973 50.789 24.8108C48.8917 26.1243 46.7025 26.8541 44.0754 26.8541C43.0538 26.8541 42.0322 26.7081 40.8646 26.4162V23.3514C42.0322 23.6432 42.9079 23.6432 43.6376 23.6432C45.389 23.6432 46.8484 23.2054 48.016 22.4757C49.1836 21.6 49.9133 20.4324 49.9133 18.6811C49.9133 17.5135 49.4754 16.6378 48.4538 16.0541C47.5781 15.4703 46.2646 15.1784 44.8052 15.1784H43.6376V12.2595H44.3673C45.9727 12.2595 47.2863 11.6757 48.3079 10.6541C49.3295 9.63243 49.9133 8.31892 49.9133 6.71351C49.9133 5.54595 49.4754 4.52432 48.4538 3.94054C47.5781 3.21081 46.4106 2.91892 44.8052 2.91892C44.0754 2.91892 43.1998 2.91892 42.47 3.06486V9.63243H39.1133V0.583784C41.4484 0.145946 43.6376 0 45.6808 0Z" fill="black"/>
<path id="Vector_4" d="M66.9893 26.4159V23.497H68.7406L67.8649 18.5348H62.319L61.4433 23.497H63.3406V26.4159H55.6055V23.497H57.9406L62.0271 3.35642H60.2757V0.4375H67.8649L72.5352 23.497H74.8703V26.4159H66.9893ZM64.946 3.79426L62.7568 15.7618H67.2811L65.092 3.79426H64.946Z" fill="black"/>
<path id="Vector_5" d="M82.1684 14.5947V23.4974H84.5035V26.4164H76.1846V23.4974H78.5197V3.35691H76.1846V0.437988H84.5035V3.35691H82.1684V11.6758H89.1738V3.35691H86.8386V0.437988H95.1575V3.35691H92.8224V23.4974H95.1575V26.4164H86.8386V23.4974H89.1738V14.5947H82.1684Z" fill="black"/>
<path id="Vector_6" d="M103.768 3.35691V11.238H105.665C108.146 11.238 110.19 11.8218 111.795 12.9893C113.4 14.1569 114.276 15.9083 114.276 18.2434C114.276 20.7245 113.254 22.6218 111.211 24.2272C109.168 25.6866 106.687 26.5623 103.768 26.5623H97.7842V23.6434H100.119V3.35691H97.7842V0.437988H106.103V3.35691H103.768ZM110.481 18.2434C110.481 16.9299 110.044 15.9083 109.022 15.1785C108 14.4488 106.541 14.1569 104.644 14.1569H103.622V23.4974C108.146 23.3515 110.481 21.6002 110.481 18.2434Z" fill="black"/>
</g>
</g>
<defs>
<clipPath id="clip0_189_1490">
<rect width="114.13" height="27" fill="white"/>
</clipPath>
</defs>
</svg>
